<svg width="16" height="16" viewBox="0 0 16 16" fill="none" xmlns="http://www.w3.org/2000/svg">
<path d="M10.7784 5.33301V5.33301C11.9167 5.33301 12.4859 5.33301 12.94 5.50393C13.6587 5.77443 14.2259 6.34163 14.4964 7.06034C14.6673 7.51446 14.6673 8.0836 14.6673 9.2219V10.3997C14.6673 11.8931 14.6673 12.6399 14.3767 13.2103C14.121 13.7121 13.7131 14.12 13.2113 14.3757C12.6409 14.6663 11.8941 14.6663 10.4007 14.6663H9.22288C8.08458 14.6663 7.51543 14.6663 7.06132 14.4954C6.34261 14.2249 5.7754 13.6577 5.5049 12.939C5.33398 12.4849 5.33398 11.9157 5.33398 10.7775V10.7775M5.60065 10.6663H6.40065C7.89412 10.6663 8.64086 10.6663 9.21129 10.3757C9.71306 10.12 10.121 9.71208 10.3767 9.21032C10.6673 8.63988 10.6673 7.89315 10.6673 6.39967V5.59967C10.6673 4.1062 10.6673 3.35946 10.3767 2.78903C10.121 2.28727 9.71306 1.87932 9.21129 1.62366C8.64086 1.33301 7.89412 1.33301 6.40065 1.33301H5.60065C4.10718 1.33301 3.36044 1.33301 2.79001 1.62366C2.28824 1.87932 1.8803 2.28727 1.62463 2.78903C1.33398 3.35946 1.33398 4.1062 1.33398 5.59968V6.39967C1.33398 7.89315 1.33398 8.63988 1.62463 9.21032C1.8803 9.71208 2.28824 10.12 2.79001 10.3757C3.36044 10.6663 4.10718 10.6663 5.60065 10.6663Z" stroke="white" stroke-width="1.5" stroke-linecap="round" stroke-linejoin="round"/>
</svg>
